<svg width="195" height="36" viewBox="0 0 195 36" fill="none" xmlns="http://www.w3.org/2000/svg">
<path d="M0 27V1.8H2.16C9.144 1.8 14.796 7.416 14.796 14.4C14.796 21.384 9.144 27 2.16 27H0ZM2.16 2.16V26.64C9.144 26.64 11.916 21.384 11.916 14.4C11.916 7.416 9.144 2.16 2.16 2.16ZM20.7146 27L19.8506 19.8H17.1866L16.3586 27H15.8906L18.2666 6.336L17.7266 1.8H19.9226L22.9466 27H20.7146ZM17.2226 19.44H19.8146L18.5906 8.964H18.4466L17.2226 19.44ZM28.3514 27H26.1914V1.8H32.6714V2.16H28.3514V10.8H30.5114V11.16H28.3514V27ZM37.3514 27H35.1914V1.8H41.6714V2.16H37.3514V10.8H39.5114V11.16H37.3514V27ZM42.3633 14.4C42.3633 7.416 48.3393 1.404 55.3233 1.404C62.3073 1.404 68.3193 7.416 68.3193 14.4C68.3193 21.384 62.3073 27.36 55.3233 27.36C48.3393 27.36 42.3633 21.384 42.3633 14.4ZM45.2433 14.4C45.2433 21.384 48.3393 27 55.3233 27C62.3073 27 65.4393 21.384 65.4393 14.4C65.4393 7.416 62.3073 1.764 55.3233 1.764C48.3393 1.764 45.2433 7.416 45.2433 14.4ZM71.1914 27V1.8H73.3514C80.3354 1.8 85.9874 7.416 85.9874 14.4C85.9874 21.384 80.3354 27 73.3514 27H71.1914ZM73.3514 2.16V26.64C80.3354 26.64 83.1074 21.384 83.1074 14.4C83.1074 7.416 80.3354 2.16 73.3514 2.16ZM90.6834 27H88.5234V1.8H90.6834V27ZM96.4139 1.8V26.64H101.454V27H94.2539V1.8H96.4139Z" fill="#BC0930"/>
<path d="M155.824 17.892L157.732 19.8C155.716 24.084 151 27.36 145.96 27.36C138.976 27.36 133 21.384 133 14.4C133 7.416 138.976 1.404 145.96 1.404C151 1.404 155.716 4.716 157.732 9L155.824 10.944C154.996 5.724 151.72 1.764 145.96 1.764C138.976 1.764 135.88 7.416 135.88 14.4C135.88 21.384 138.976 27 145.96 27C151.72 27 154.996 23.076 155.824 17.892ZM159.156 14.4C159.156 7.416 165.132 1.404 172.116 1.404C179.1 1.404 185.112 7.416 185.112 14.4C185.112 21.384 179.1 27.36 172.116 27.36C165.132 27.36 159.156 21.384 159.156 14.4ZM162.036 14.4C162.036 21.384 165.132 27 172.116 27C179.1 27 182.232 21.384 182.232 14.4C182.232 7.416 179.1 1.764 172.116 1.764C165.132 1.764 162.036 7.416 162.036 14.4ZM188.846 25.992C188.846 25.164 189.422 24.588 190.25 24.588C191.114 24.588 191.654 25.164 191.654 25.992C191.654 26.856 191.114 27.396 190.25 27.396C189.422 27.396 188.846 26.856 188.846 25.992Z" fill="#BC0930"/>
<path d="M114.7 17.8H114.5C114.5 12.86 120.42 16.38 120.42 12.6H120.62C120.62 14.88 119.68 15.66 118.56 16C119.4 19.08 117.46 22.2 113.84 22.2C112.18 22.2 108.44 21.46 108.44 17.2C108.44 13.34 111.5 12.16 113.12 12.02V11.98C111.9 11.84 110.64 10.96 110.64 9.8C110.64 8.5 112.18 7.8 113.84 7.8C115.5 7.8 117.04 8.5 117.04 9.8H115.84C115.84 8.54 115.2 8 113.84 8C112.48 8 111.84 8.54 111.84 9.8C111.84 11.06 112.48 11.82 113.84 11.82V12.16C112.48 12.16 109.84 13.06 109.84 17.2C109.84 21.34 112.48 22 113.84 22C117.24 22 119.2 19.1 118.36 16.04C116.68 16.44 114.7 15.98 114.7 17.8Z" fill="#BC0930"/>
</svg>
